<?xml version="1.0" standalone="no"?><!DOCTYPE svg PUBLIC "-//W3C//DTD SVG 1.1//EN" "http://www.w3.org/Graphics/SVG/1.1/DTD/svg11.dtd"><svg t="1594198341734" class="icon" viewBox="0 0 1024 1024" version="1.1" xmlns="http://www.w3.org/2000/svg" p-id="3114" xmlns:xlink="http://www.w3.org/1999/xlink" width="200" height="200"><defs><style type="text/css"></style></defs><path d="M542.074458 709.832717c-1.313925 0-2.642177-0.106424-3.982708-0.319272-12.665461-1.858324-21.638833-12.133342-21.825075-24.930809l-4.938476-337.016687-99.246375 240.052285c-4.712325 11.444657-16.568351 17.71036-28.635177 15.32094-12.133342-2.38942-20.603247-12.718673-20.603247-25.091468L362.8434 450.384687l-30.852682 56.56632c-4.513804 8.243755-13.130042 13.341866-22.474874 13.341866L77.433068 520.292873c-7.514137 0-13.5936-6.079462-13.5936-13.5936s6.079462-13.5936 13.5936-13.5936l231.139288 0 33.414017-61.266365c5.682419-10.446933 17.271362-15.492856 28.768207-12.544711 11.535731 2.933819 19.276019 12.903891 19.276019 24.797779l0 125.718283 99.140974-239.807714c4.672416-11.337209 16.287965-17.682731 28.448936-15.359826 12.053524 2.309602 20.61655 12.492522 20.776186 24.758893l4.91187 334.986447 83.807754-262.648932c3.929496-12.30628 15.625886-19.514449 28.316929-17.509792 12.744255 1.991354 21.652136 12.386098 21.652136 25.288966l0 225.610364 95.529727-173.809581c5.722328-10.408047 17.312294-15.373129 28.780487-12.465916 11.497868 2.960425 19.222807 12.917194 19.222807 24.772196l0 21.612227 126.116349 1.540076c7.500834 0.093121 13.514805 6.239098 13.422707 13.766538-0.079818 7.486508-5.64251 13.700023-13.766538 13.420661l-127.697357-1.565658c-13.924127-0.172939-25.263383-11.656481-25.263383-25.594935l0-16.926508-95.517447 173.781952c-5.708002 10.43363-17.284665 15.346523-28.78151 12.478196-11.509125-2.972705-19.23611-12.930497-19.23611-24.797779L649.895115 429.807023l-83.661422 262.183328C562.744219 702.903911 553.119001 709.832717 542.074458 709.832717z" p-id="3115" fill="#1296db"></path></svg>